# xmcd
#
# Track frame offsets: 
#        150
#        13660
#        26225
#        39727
#        52647
#        65245
#        77757
#        91092
#        104160
#        116445
#        128317
#        140342
#
# Disc length: 2046 seconds
#
# Revision: 1
# Processed by: cddbd v1.5.2PL0 Copyright (c) Steve Scherf et al.
# Submitted via: ExactAudioCopy v1.0b3
#
DISCID=9907fc0c
DTITLE=Sam (The Man)Taylor - Blue Mist
DYEAR=1976
DGENRE=Blue
TTITLE0=Sam (The Man)Taylor - Harlem Nocturne
TTITLE1=Sam (The Man)Taylor - To a Wild Rose
TTITLE2=Sam (The Man)Taylor - September Song
TTITLE3=Sam (The Man)Taylor - Bluer Than Blue
TTITLE4=Sam (The Man)Taylor - The Very Though Of You
TTITLE5=Sam (The Man)Taylor - Lonely Love Affair
TTITLE6=Sam (The Man)Taylor - Don t Take Your Love From Me
TTITLE7=Sam (The Man)Taylor - Indian Summer
TTITLE8=Sam (The Man)Taylor - As Time Goes By
TTITLE9=Sam (The Man)Taylor - Someone To Watch Over Me
TTITLE10=Sam (The Man)Taylor - Blue Mist
TTITLE11=Sam (The Man)Taylor - Tara s Theme
EXTD=
EXTT0=
EXTT1=
EXTT2=
EXTT3=
EXTT4=
EXTT5=
EXTT6=
EXTT7=
EXTT8=
EXTT9=
EXTT10=
EXTT11=
PLAYORDER=
